<?xml version="1.0" encoding="UTF-8" standalone="no"?>
<!-- Created with Inkscape (http://www.inkscape.org/) -->

<svg
   version="1.1"
   id="svg1"
   width="840.47644"
   height="220.68022"
   viewBox="0 0 840.47644 220.68022"
   xml:space="preserve"
   xmlns="http://www.w3.org/2000/svg"
   xmlns:svg="http://www.w3.org/2000/svg"><defs
     id="defs1" /><g
     id="g1"
     transform="translate(-110.52354,-389)"><path
       style="fill:#000000"
       d="m 314.83815,608.5307 c -1.59427,-0.89972 -3.35631,-3.32063 -4.39339,-6.03616 -6.27808,-16.43893 9.57194,-49.36797 37.21116,-77.30762 l 9.58275,-9.68692 0.50092,-11 c 0.27551,-6.05 0.26977,-10.775 -0.0128,-10.5 -0.28253,0.275 -3.27398,4.63799 -6.64766,9.69553 -6.36684,9.54463 -12.75056,15.93291 -16.98306,16.9952 -3.35537,0.84214 -7.35709,-1.60386 -8.54278,-5.22166 -0.53519,-1.63299 -1.0542,-3.10714 -1.15335,-3.27589 -0.0992,-0.16875 -2.22093,1.13156 -4.71505,2.88958 -6.44516,4.54297 -13.10778,5.11521 -17.4098,1.49529 -1.95059,-1.64131 -3.77347,-4.60836 -4.82749,-7.85757 -0.93141,-2.87126 -2.03284,-5.59265 -2.4476,-6.04752 -0.87625,-0.96098 -6.29634,4.37829 -12.73963,12.54964 -4.88184,6.19113 -7.47831,7.67137 -9.91257,5.65112 -3.10259,-2.57493 -3.41223,-5.76971 -1.85457,-19.13535 0.83692,-7.18122 1.32583,-13.25261 1.08646,-13.49197 -0.93701,-0.93702 -10.45347,12.56629 -17.6204,25.00236 -4.14736,7.19651 -8.30986,13.56977 -9.25,14.16279 -2.76748,1.74569 -5.16252,-0.49 -5.51101,-5.14436 -0.25698,-3.43204 2.39064,-16.4265 4.42938,-21.73938 0.51118,-1.33212 0.15574,-1.51156 -1.94811,-0.98353 -3.83238,0.96187 -9.61424,-1.36164 -13.24185,-5.3214 l -3.21244,-3.50656 -3.59164,4.89184 c -1.9754,2.69051 -6.33867,10.51684 -9.69617,17.39184 -3.35749,6.875 -6.45268,13.175 -6.87819,14 -2.31959,4.49727 -7.20546,0.85529 -6.3822,-4.75736 1.93375,-13.18359 9.71618,-42.90639 11.8075,-45.09542 1.66664,-1.74452 5.51775,-0.57685 5.50839,1.67017 -0.004,0.92543 -0.91281,5.46115 -2.01992,10.07936 -1.1071,4.61821 -1.86191,8.54774 -1.67736,8.73229 0.18455,0.18455 2.18603,-2.28843 4.44773,-5.49552 2.45312,-3.47852 5.38665,-6.35898 7.2711,-7.13954 3.12667,-1.29511 3.21224,-1.25072 8.38209,4.34878 2.87275,3.11148 5.95442,5.65724 6.84817,5.65724 2.95231,0 6.79691,-1.94143 7.39638,-3.73499 0.32447,-0.97076 1.86429,-4.57751 3.42184,-8.01501 2.41209,-5.32349 3.21495,-6.25 5.41583,-6.25 1.42115,0 2.81152,0.59311 3.08969,1.31802 0.27818,0.72491 -1.53595,7.18688 -4.03138,14.35993 -2.49544,7.17304 -4.53716,13.4216 -4.53716,13.88568 0,0.46408 2.33408,-2.71161 5.18683,-7.05708 C 262.06779,489.02511 268.87934,482 272.16117,482 c 1.39087,0 3.38391,0.94482 4.42897,2.0996 2.15216,2.37812 2.38421,6.61345 1.08221,19.75274 l -0.82765,8.35234 5.35831,-6.35234 c 2.94707,-3.49379 7.07351,-7.19672 9.16986,-8.22875 3.73843,-1.84042 3.86101,-1.83948 6.39061,0.0491 1.50264,1.12188 3.3516,4.19826 4.42998,7.37081 1.01799,2.99489 2.69197,6.28632 3.71995,7.3143 1.65071,1.65072 2.302,1.72616 5.57543,0.64583 C 315.08844,511.81571 329,499.73598 329,497.79834 c 0,-0.52767 1.60789,-3.38179 3.57308,-6.34248 5.26525,-7.93243 13.24313,-12.22935 19.41776,-10.45849 2.28463,0.65523 3.19145,0.49932 3.84039,-0.66027 1.04244,-1.86274 5.19569,-1.41589 6.16122,0.6629 0.38318,0.825 1.244,2.55021 1.91293,3.8338 0.66893,1.28359 1.47737,6.94512 1.79654,12.58119 l 0.5803,10.24739 8.97493,-5.58119 c 5.8426,-3.6333 9.96098,-7.01034 11.80021,-9.67607 6.82862,-9.89723 13.84819,-13.34811 21.74324,-10.68914 2.58467,0.87049 5.24849,1.72123 5.9196,1.89054 1.9778,0.49897 2.73883,5.31849 1.05712,6.69459 -3.10862,2.54369 -4.9149,21.7609 -2.37222,25.23823 1.34577,1.84043 1.55507,1.85008 4.95598,0.2283 9.36353,-4.46516 17.55794,-15.35267 21.01657,-27.92371 1.30689,-4.75012 2.68311,-9.13323 3.05827,-9.74025 0.7891,-1.27679 5.20515,-1.49345 5.9478,-0.29182 0.27597,0.44653 -0.53402,5.40807 -1.79998,11.02567 -1.26595,5.61759 -2.1827,10.08975 -2.03721,9.93813 0.14549,-0.15161 2.2872,-3.02851 4.75934,-6.39309 2.91798,-3.97137 5.61575,-6.5082 7.69009,-7.23132 2.89844,-1.0104 3.44278,-0.86015 5.8598,1.61744 1.46549,1.50222 3.38999,3.85631 4.27666,5.23131 1.39168,2.15814 2.27909,2.47493 6.48959,2.3167 3.90044,-0.14659 5.16875,-0.64737 6.33163,-2.5 3.06746,-4.88691 10.0413,-10.73825 14.10116,-11.83146 3.54724,-0.95517 4.68726,-0.8271 8.22696,0.9242 2.26001,1.11817 4.22728,1.91485 4.37172,1.77041 0.14444,-0.14444 2.33294,-8.48317 4.86334,-18.53051 7.90249,-31.37813 17.73559,-55.97302 25.79438,-64.51783 3.90007,-4.13527 6.7484,-4.57191 9.81561,-1.5047 2.79595,2.79595 2.19966,8.74907 -2.23677,22.33123 -2.79268,8.5498 -17.92306,40.36214 -27.9269,58.71761 -3.54379,6.5023 -5.97864,19.38224 -8.4568,44.73496 -1.84716,18.89734 -1.85198,28.37278 -0.0171,33.52327 1.64188,4.60864 1.28076,5.56612 -2.09931,5.56612 -4.2403,0 -5.39734,-4.70478 -5.34106,-21.71788 0.0269,-8.13017 0.63448,-19.95712 1.35019,-26.28212 1.3095,-11.57244 1.21423,-13.84732 -0.45501,-10.86456 -2.8241,5.04639 -15.42255,20.06063 -17.91392,21.34896 -10.98734,5.68178 -16.79916,-5.70331 -10.60315,-20.77109 2.25109,-5.47429 2.27558,-5.75369 0.4538,-5.17548 -3.48753,1.1069 -7.92131,-0.65725 -11.80196,-4.69585 l -3.82172,-3.97728 -3.18193,3.81765 c -1.75006,2.09971 -6.58863,10.68015 -10.75237,19.06765 -4.16374,8.3875 -8.15292,15.25 -8.86485,15.25 -4.49464,0 -5.54221,-3.62562 -3.53943,-12.25 0.93192,-4.01307 0.17459,-4.78265 -2.04611,-2.07921 -0.75484,0.91894 -3.37304,2.94394 -5.81822,4.5 -10.18108,6.47904 -18.94766,1.43648 -19.09916,-10.98589 l -0.0449,-3.6849 -3.69162,4.5 c -8.33086,10.15513 -11.7368,13 -15.56387,13 -5.0913,0 -7.05177,-3.19748 -6.4452,-10.51195 0.25031,-3.01843 0.30663,-5.48805 0.12516,-5.48805 -0.5687,0 -10.72472,7.25945 -13.08459,9.35277 -1.2375,1.09772 -2.25,3.01246 -2.25,4.25497 0,4.99221 -5.18864,29.90186 -8.54884,41.04134 -6.36915,21.11451 -17.16693,40.39882 -25.8812,46.22256 -4.4083,2.94607 -11.11326,3.70116 -14.73181,1.65906 z m 10.33512,-7.2807 c 4.71652,-3.89885 6.34033,-5.89043 10.80326,-13.25 7.30616,-12.04817 12.73322,-27.58646 17.50587,-50.12124 1.31978,-6.23155 2.15495,-11.56604 1.85593,-11.85443 -0.8296,-0.80009 -13.5706,13.13474 -20.8825,22.83919 -7.02703,9.32637 -16.60736,27.75521 -18.36612,35.3293 -1.42136,6.12108 -1.38881,14.05663 0.0708,17.26013 1.53516,3.36932 4.7797,3.29626 9.01275,-0.20295 z m 159.41552,-84 c 2.50532,-2.6125 7.67974,-9.43603 11.4987,-15.16341 7.08823,-10.63037 7.61694,-12.56395 4.37092,-15.98514 -3.4666,-3.65368 -12.89177,5.30473 -18.81255,17.88093 -3.2312,6.86331 -4.93318,18.01762 -2.74923,18.01762 0.62536,0 3.18683,-2.1375 5.69216,-4.75 z M 395.9674,505.5 c 2.62334,-3.3 6.40662,-8.57019 8.40728,-11.71154 3.55058,-5.57494 3.58863,-5.73773 1.59123,-6.8067 -4.44635,-2.37962 -12.74485,6.08277 -17.6456,17.99408 -1.25006,3.03829 -2.28352,6.8401 -2.29657,8.44847 l -0.0237,2.92432 2.59884,-2.42432 C 390.0282,512.59094 393.34405,508.8 395.9674,505.5 Z m -55.79119,2.59467 C 345.48204,502.23154 353,490.65042 353,488.34014 c 0,-2.04161 -3.743,-2.5244 -6.90288,-0.89037 -3.88463,2.00883 -8.54181,8.83678 -11.63804,17.0627 -4.32908,11.50132 -2.49131,12.65282 5.71713,3.5822 z m 189.25301,-64.95342 c 7.79249,-15.55074 13.78525,-32.20329 13.35909,-37.12194 -0.28549,-3.2951 -0.66517,-2.78665 -5.95947,7.98069 -5.99856,12.19964 -16.18393,42 -14.35505,42 0.28155,0 3.41149,-5.78644 6.95543,-12.85875 z m 143.23292,118.86907 c -7.83835,-9.31535 -2.12336,-39.4444 21.81558,-115.01032 9.19008,-29.0095 11.9409,-38.91472 11.05358,-39.80203 -0.31943,-0.31943 -3.07967,1.86785 -6.13388,4.86062 -14.55378,14.26106 -32.78174,42.04815 -54.40846,82.94141 -10.887,20.58587 -13.22246,24 -16.41741,24 -5.82632,0 -5.77704,-3.20697 0.56087,-36.5 2.19874,-11.55 5.09227,-27.975 6.43006,-36.5 2.40122,-15.30166 3.21745,-31 1.61183,-31 -2.33344,0 -10.40204,11.76245 -19.64261,28.63508 -12.28722,22.43562 -25.64135,53.72702 -37.49783,87.86492 -2.86532,8.25 -5.85549,16.0125 -6.64482,17.25 -1.63879,2.56925 -4.57583,2.9348 -6.35506,0.79096 -1.48216,-1.78589 -1.50181,-1.6882 6.54637,-32.54096 16.65829,-63.8597 23.80283,-103 18.80127,-103 -2.33205,0 -13.29457,11.64732 -17.27632,18.35551 -2.0876,3.51707 -3.43524,7.14868 -3.5,9.43182 -0.0873,3.07728 -0.4998,3.76859 -2.41035,4.03943 C 566.08382,446.2678 564,444.33645 564,441.01191 c 0,-8.02846 15.55609,-29.01665 24.01535,-32.40138 3.58463,-1.43428 4.42742,-1.45237 7.51732,-0.16133 2.04982,0.85647 3.88842,2.52815 4.47369,4.06753 2.56435,6.74474 0.53158,24.44428 -6.49934,56.59046 -1.94777,8.90547 -3.39744,16.33572 -3.22149,16.51168 0.17596,0.17595 2.07588,-3.82881 4.22205,-8.89948 9.82513,-23.21346 28.7307,-57.39459 35.73809,-64.61421 3.47835,-3.5837 4.59876,-4.16184 7.56916,-3.90576 10.27307,0.88567 10.39948,14.02198 0.6472,67.25409 -2.41359,13.17442 -4.22747,24.11438 -4.03083,24.31102 0.19663,0.19663 3.21755,-4.87518 6.71316,-11.2707 22.63994,-41.42179 45.67088,-75.55855 57.03981,-84.54517 8.42355,-6.65844 14.81583,-4.86785 14.81583,4.15018 0,5.43138 -1.99387,12.77547 -11.5116,42.40116 -16.25457,50.5953 -24.50648,83.58998 -24.47475,97.86047 0.018,8.10062 0.66766,10.1733 3.60861,11.51328 2.0665,0.94156 2.28383,1.4332 1.38007,3.1219 -1.66476,3.11064 -6.30562,2.62106 -9.34019,-0.98533 z M 111.15335,561.25 c -2.5968,-4.95563 2.64222,-8.67336 19.34665,-13.72885 6.6,-1.99745 12.26516,-3.94434 12.58924,-4.32644 0.32408,-0.38209 1.38544,-5.41971 2.35857,-11.19471 2.46199,-14.61062 11.48443,-50.04512 23.51207,-92.3407 5.60562,-19.71239 9.93615,-36.09661 9.62338,-36.40938 -0.78284,-0.78283 -18.25439,3.90853 -28.58326,7.67503 -11.12692,4.05751 -18.77338,8.51197 -20.83646,12.13833 -1.93908,3.4084 -4.63128,3.79977 -6.18376,0.89895 -3.63533,-6.79269 8.91145,-15.00914 34.89085,-22.8488 7.27751,-2.1961 15.63176,-4.49113 18.56499,-5.10006 4.75931,-0.98803 5.39669,-1.4249 5.92376,-4.06026 0.45753,-2.28768 1.1321,-2.95311 2.99365,-2.95311 1.32166,0 3.02041,0.88513 3.775,1.96695 1.3291,1.9055 1.68441,1.92086 11.37197,0.49157 5.5,-0.81146 15.85,-1.72562 23,-2.03148 14.46111,-0.6186 17.25805,0.10018 18.93403,4.8658 0.79863,2.2709 0.59313,3.12444 -1.17887,4.89645 -1.79361,1.7936 -2.40144,1.9342 -3.70063,0.85596 C 236.69954,399.33567 236,398.07139 236,397.23574 c 0,-3.52288 -45.99364,1.01534 -47.98414,4.73462 -1.62012,3.02723 -22.40673,76.83034 -29.01825,103.02964 -4.00054,15.85288 -8.11815,35.99594 -7.5471,36.91993 0.2407,0.38945 4.4003,0.13513 9.24356,-0.56517 4.84326,-0.7003 15.33093,-1.54623 23.30593,-1.87983 17.13294,-0.71669 19.5,-0.0424 19.5,5.5546 0,2.83971 -0.40975,3.52866 -2.25447,3.79061 -1.35228,0.19202 -2.49559,-0.3082 -2.85699,-1.25 -1.02373,-2.66781 -19.70351,-1.98901 -41.52788,1.50906 -6.22856,0.99833 -6.67586,1.24681 -7.22972,4.01609 -0.84562,4.22813 -3.45933,4.85769 -6.15129,1.48165 l -2.20055,-2.75976 -7.88955,2.20801 c -8.04865,2.25254 -16.74466,6.12235 -17.8778,7.95579 -0.98481,1.59346 -3.34807,1.1971 -4.3584,-0.73098 z M 804.39966,544.60558 C 800.93325,543.05909 800,541.35421 800,536.56825 c 0,-5.452 6.02698,-12.26681 20.58324,-23.27382 l 2.91676,-2.20557 -6,-5.50545 c -3.3,-3.02799 -6.45,-5.50515 -7,-5.50479 -0.55,3.6e-4 -5.94435,2.57032 -11.98745,5.71102 L 787.5251,511.5 l -0.0583,6 c -0.0741,7.62169 -3.1408,13.986 -9.69236,20.11422 C 772.02845,542.98892 767.62557,545 761.6047,545 c -3.62664,0 -4.84663,-0.49211 -6.53212,-2.63486 -2.40752,-3.06067 -2.66268,-7.32333 -0.66913,-11.17843 1.72872,-3.34298 10.31131,-11.54825 17.42494,-16.65889 5.94261,-4.26934 6.07105,-3.67394 -2.21496,-10.26822 l -4.88657,-3.8889 -9.61343,9.58045 c -12.58776,12.54458 -21.39561,17.4768 -31.28655,17.51982 -7.22034,0.0314 -10.18758,-1.3947 -14.26509,-6.85609 -3.19267,-4.27623 -2.84749,-14.3327 0.75908,-22.11488 2.92521,-6.31196 9.28839,-13.66665 13.93908,-16.11103 8.40902,-4.41975 17.51106,0.77292 14.65576,8.36103 -2.45194,6.51616 -14.35028,15.25 -20.77548,15.25 -3.34347,0 -4.14023,1.3716 -4.14023,7.12724 0,5.22695 3.45855,8.87276 8.41703,8.87276 8.68141,0 22.18853,-8.30628 33.3956,-20.53682 4.72324,-5.15459 5.81553,-6.95751 5.43168,-8.96546 -1.89097,-9.89201 19.20563,-24.00772 27.1733,-18.18162 3.23283,2.3639 1.58204,5.08772 -3.52629,5.81843 -5.52606,0.79047 -9.44978,2.71645 -13.78568,6.76679 -4.94026,4.61489 -4.11331,7.26146 4.4671,14.29639 l 7.07274,5.79882 12.87861,-5.89248 12.87861,-5.89249 0.10039,-4.00146 c 0.1792,-7.14238 8.02865,-14.75524 17.94978,-17.40874 5.94416,-1.58982 10.04713,-0.27375 10.04713,3.22272 0,2.19266 -0.51717,2.53547 -4.52054,2.99642 C 823.88808,480.95216 815,487.68236 815,492.87762 c 0,2.01474 12.53178,14.06819 14.66291,14.10325 0.63961,0.0105 7.20106,-2.84316 14.58102,-6.34151 l 13.41811,-6.36064 1.28493,-4.5893 c 1.59069,-5.68139 4.42823,-8.58296 6.86157,-7.01638 2.13304,1.37325 2.00271,2.52032 -1.72651,15.19512 -3.50835,11.92415 -4.93704,22.48538 -3.18798,23.56636 4.34462,2.68512 25.05761,-20.98071 29.26365,-33.43548 2.38085,-7.05009 3.86653,-8.59163 6.77838,-7.03325 2.45887,1.31595 2.53899,2.43627 0.57279,8.00908 -2.78052,7.88083 -4.40385,14.02514 -3.70497,14.02334 0.38286,-9.8e-4 1.90706,-1.91348 3.38713,-4.25 6.12236,-9.66509 14.02241,-14.8216 18.94694,-12.36701 3.27927,1.63452 4.49379,4.65533 6.24268,15.52707 1.51659,9.42764 2.56217,11.38559 5.52867,10.353 3.11018,-1.08261 12.02544,-8.30231 15.74093,-12.74722 4.22488,-5.05431 7.34975,-5.94371 7.34975,-2.09188 0,1.63782 -2.1858,4.67088 -6.75,9.36643 -10.32102,10.61803 -17.96319,13.58464 -23.59104,9.15778 -2.91111,-2.28988 -4.20001,-6.27505 -5.19114,-16.0506 -0.88196,-8.69879 -1.5451,-9.73039 -4.85916,-7.55894 -3.12814,2.04964 -11.8766,14.29471 -18.09493,25.32716 -5.329,9.45462 -6.60564,10.75899 -9.60007,9.8086 -2.02018,-0.64118 -2.13964,-1.14974 -1.60781,-6.84495 0.31598,-3.38376 0.91358,-7.04675 1.328,-8.13997 0.41441,-1.09323 -1.88448,0.85435 -5.10865,4.32794 -9.18504,9.89558 -16.2738,12.52669 -21.00438,7.79611 -3.14177,-3.14178 -3.98677,-8.17969 -2.64735,-15.78371 0.60032,-3.40802 0.91086,-6.37702 0.6901,-6.59778 -0.22075,-0.22076 -4.8581,1.88789 -10.30522,4.68588 l -9.90384,5.08726 0.0727,6.24831 c 0.0866,7.43897 -2.67341,12.95519 -9.74224,19.47101 -7.66676,7.06697 -14.59986,9.4194 -20.28535,6.88288 z m -37.78374,-7.22761 c 7.0199,-3.33116 15.64233,-15.65664 13.98115,-19.98559 -0.4776,-1.24462 -1.45851,-0.91514 -5.33291,1.79124 C 767.21459,524.80648 759,533.51211 759,536.42 c 0,3.10613 2.44176,3.41327 7.61592,0.95797 z m 47.18374,0.20224 c 3.56706,-1.87551 10.57291,-9.26467 12.5916,-13.28055 1.73112,-3.44381 2.13552,-7.29966 0.76557,-7.29966 -1.65268,0 -14.79155,9.81994 -17.94628,13.41298 -4.03557,4.59626 -4.34272,8.58702 -0.66089,8.58702 1.40231,0 3.76481,-0.63891 5.25,-1.41979 z M 724.56501,496.75 c 5.40945,-3.6695 9.00963,-8.0112 7.99896,-9.6465 -1.42317,-2.30273 -8.78193,3.41899 -13.04953,10.1465 -2.29656,3.62035 -0.80596,3.47278 5.05057,-0.5 z m 140.46747,-22.68932 c -2.3958,-4.47658 2.81389,-8.07145 6.44089,-4.44445 1.41047,1.41047 1.4368,1.88787 0.20683,3.75 -1.92932,2.92092 -5.26942,3.26984 -6.64772,0.69445 z"
       id="path1" /></g></svg>
